<svg xmlns="http://www.w3.org/2000/svg" viewBox="0 0 477 794" width="477" height="794"><style>tspan { white-space:pre }.shp0 { fill: #ffffff } .shp1 { fill: #dde6f6 } .shp2 { fill: #fcd0b4 } .shp3 { fill: #de9284 } .shp4 { fill: #a7a5a6 } .shp5 { fill: #3f59b1 } .shp6 { fill: none;stroke: #231f20;stroke-linecap:round;stroke-linejoin:round;stroke-width: 6.939 } .shp7 { fill: none;stroke: #231f20;stroke-linecap:round;stroke-linejoin:round;stroke-width: 5.948 } .shp8 { fill: #3c2221 } .shp9 { fill: #87575c } .shp10 { fill: #d8e2f5 } .shp11 { fill: #231f20 } .shp12 { fill: #f7939c } .shp13 { fill: none;stroke: #231f20;stroke-width: 6.939 } .shp14 { fill: #c57e7b } .shp15 { fill: #bdbcbc } </style><g ><path class="shp0" d="M150.6 493.3C118.01 505 71.05 528.36 56.01 531.05C-10.84 543.04 4.47 793.05 4.47 793.05L85.93 793.88L472.75 793.88C472.75 614.64 472.43 550.88 415.85 526.39C406.44 522.32 359.79 504.5 325.11 494.02C304.61 470.77 287.84 467.21 287.84 467.21C287.84 467.21 283.83 454.3 242.24 453.44C190.36 452.37 189.78 465.77 189.78 465.77C189.78 465.77 162.96 476 150.6 493.3" /><path class="shp1" d="M471.07 668.44C471.07 668.44 421.83 724.64 278.17 745.88C130.4 767.72 8.98 707.42 8.98 707.42L4.47 793.88L472.75 793.88L471.07 668.44" /><path class="shp2" d="M271.12 477.36C271.17 467.71 269.98 444.75 269.98 444.75L203.11 444.75C203.11 444.75 202.55 468.99 202.75 475.66C202.75 475.66 211 505.92 238.24 505.92C265.47 505.92 271.12 477.36 271.12 477.36" /><path class="shp3" d="M204.22 435.18L268.91 435.18L269.61 467.87C269.61 467.87 234.89 496.96 202.39 479.55L203.62 460.33L204.22 435.18" /><path class="shp4" d="M196.75 570.34L222.23 531.49L253.45 529.19L276.99 564.6C276.99 564.6 225.41 545.5 196.75 570.34Z" /><path class="shp5" d="M237.27 730.22L214.46 651.16L230.09 556.18L222.66 529.19L237.09 508.98L240.92 508.98L253.45 529.19L243.77 556.18L258.93 652.3L237.27 730.22Z" /><path class="shp6" d="M270.89 462.18C270.89 462.18 271.36 466.72 272.6 475.44C272.6 475.44 261.57 499.5 237.97 506.5C214.38 499.5 202.44 475.66 202.44 475.66C203.06 465.47 203.33 461.74 203.33 461.74" /><path class="shp7" d="M258.86 654.98L243.77 556.18L253.45 529.19" /><path class="shp7" d="M222.66 529.19L230.09 556.18L215.86 657.66" /><path class="shp7" d="M238.06 506.5L195.78 569.49C195.78 569.49 183.67 553.01 179.82 512.38C178.84 502.23 179.77 487.35 184.65 474.16C187.41 466.66 192.1 462.31 196.14 459.79" /><path class="shp7" d="M238.06 506.5L280.32 569.49C280.32 569.49 292.42 553.01 296.3 512.38C297.27 502.23 296.35 487.35 291.47 474.16C288.39 465.87 283.01 461.42 278.71 459.07" /><path class="shp6" d="M326.62 493.18C361.82 504.53 398.87 516.2 428.59 532.75C468.68 555.08 472.75 613.8 472.75 793.05" /><path class="shp6" d="M150.6 493.18C115.4 504.53 78.35 516.2 48.63 532.75C8.54 555.08 4.47 613.8 4.47 793.05" /><path class="shp6" d="M54.96 613.21L86.08 793.25" /><path class="shp6" d="M421.5 613.21L390.4 793.25" /><path class="shp7" d="M230.09 556.18C230.09 556.18 237.68 552.79 243.6 555.81" /><path class="shp7" d="M182.96 535.94L235.83 733.59" /><path class="shp7" d="M293 535.94L220.54 788.78" /><path class="shp7" d="M187.83 467.27C187.83 467.27 155.19 474.93 132.01 521.93L152.39 532.12L115.46 568.43L226.48 759.93" /><path class="shp7" d="M288.89 467.27C288.89 467.27 321.54 474.93 344.73 521.93L324.34 532.12L361.3 568.43L230.73 792.62" /><path class="shp8" d="M393.96 301.09L78.63 301.09L75.26 244.96C75.26 244.96 60.53 211.86 60.61 161.08C60.66 132.03 70.45 108.06 96.81 81.27C130.34 47.18 203.68 7.69 265.46 3.7C317.24 0.35 339.03 33.84 328.42 55.05C328.42 55.05 353.26 50.58 379.14 73.46C398.47 90.55 410.9 132.03 410.94 161.08C411.02 211.86 396.29 244.96 396.29 244.96L393.96 301.09Z" /><path class="shp9" d="M404.65 125.11C388.03 94.21 364.54 74.34 336.08 65.65C327.37 62.99 332.99 55.22 332.99 55.22L339.56 55.04C349.23 56.06 363.99 60.06 379.14 73.46C386.52 79.98 392.88 90.07 397.94 101.64L404.65 125.11" /><path class="shp9" d="M84.4 261.84C84.4 261.84 69.68 228.75 69.75 177.96C69.8 148.91 79.6 124.94 105.95 98.15C139.49 64.06 211.42 23.48 272.98 16.8C301.79 13.67 317.22 21.49 330.41 38.1C326.63 19.73 304.65 1.17 265.46 3.7C203.68 7.69 130.34 47.18 96.81 81.27C70.45 108.06 60.66 132.03 60.61 161.08C60.53 211.86 75.26 244.96 75.26 244.96L78.63 301.09L86.76 301.09L84.4 261.84" /><path class="shp2" d="M377.24 256.53C377.24 256.53 382.46 241.75 395.69 245.26C412.15 249.63 423.63 274.21 407.95 311.34C393.49 345.56 377.58 351.47 367.78 346.46" /><path class="shp3" d="M376.74 286.63C372.69 300.79 366.29 319.06 374.21 322.45C382.13 325.83 393.27 313.9 397.32 299.76C401.76 284.28 403.11 273.13 395.19 269.75C387.26 266.36 379.75 276.08 376.74 286.63" /><path class="shp2" d="M91.14 256.53C91.14 256.53 85.92 241.75 72.69 245.26C56.23 249.63 44.76 274.21 60.44 311.34C74.88 345.56 90.8 351.47 100.6 346.46" /><path class="shp3" d="M91.64 286.63C95.69 300.79 102.08 319.06 94.17 322.45C86.25 325.83 75.1 313.9 71.06 299.76C66.62 284.28 65.28 273.13 73.19 269.75C81.11 266.36 88.64 276.08 91.64 286.63" /><path class="shp2" d="M367.63 179.32C367.63 179.32 380.88 255.95 374.13 310.59C368.46 356.52 352.62 402.77 326.48 424.53C301.87 445.01 267.53 465.7 234.19 465.7C200.51 465.7 167.46 445.01 142.85 424.53C116.7 402.77 99.92 356.52 94.25 310.59C87.5 255.95 100.75 179.32 100.75 179.32C100.75 179.32 138.64 106.94 213.6 89.09C213.6 89.09 162.46 119.22 143.28 157.74C143.28 157.74 232.78 92.43 307.16 89.09C307.16 89.09 348.33 109.74 367.63 179.32Z" /><path class="shp0" d="M138.12 263.89C138.12 282.09 151.65 296.85 168.33 296.85C185.02 296.85 198.54 282.09 198.54 263.89C198.54 245.69 192.74 225.29 168.33 225.29C143.92 225.29 138.12 245.69 138.12 263.89Z" /><path class="shp0" d="M330.12 263.89C330.12 282.09 316.59 296.85 299.91 296.85C283.22 296.85 269.69 282.09 269.69 263.89C269.69 245.69 275.5 225.29 299.91 225.29C324.31 225.29 330.12 245.69 330.12 263.89Z" /><path class="shp10" d="M192.68 240.78C189.55 236.61 181.21 222.01 164 225.66C146.79 229.31 141.06 240.25 139.49 248.08C139.49 248.08 157.74 224.09 192.68 240.78Z" /><path class="shp10" d="M275.61 240.78C278.74 236.61 287.09 222.01 304.3 225.66C321.51 229.31 327.25 240.25 328.81 248.08C328.81 248.08 310.56 224.09 275.61 240.78Z" /><path class="shp11" d="M192.27 262.76C192.27 276.65 184.78 287.93 175.55 287.93C166.3 287.93 158.81 276.65 158.81 262.76C158.81 248.85 166.3 237.57 175.55 237.57C184.78 237.57 192.27 248.85 192.27 262.76Z" /><path class="shp12" d="M158.75 308.6C158.75 314.32 146.06 318.95 130.41 318.95C114.75 318.95 102.06 314.32 102.06 308.6C102.06 302.89 114.75 298.26 130.41 298.26C146.06 298.26 158.75 302.89 158.75 308.6" /><path class="shp12" d="M366.31 308.6C366.31 314.32 353.62 318.95 337.96 318.95C322.32 318.95 309.63 314.32 309.63 308.6C309.63 302.89 322.32 298.26 337.96 298.26C353.62 298.26 366.31 302.89 366.31 308.6Z" /><path class="shp0" d="M190.55 250.99C190.55 254 188.76 256.44 186.57 256.44C184.37 256.44 182.58 254 182.58 250.99C182.58 247.96 184.37 245.51 186.57 245.51C188.76 245.51 190.55 247.96 190.55 250.99Z" /><path class="shp11" d="M310.34 262.76C310.34 276.65 302.85 287.93 293.61 287.93C284.37 287.93 276.88 276.65 276.88 262.76C276.88 248.85 284.37 237.57 293.61 237.57C302.85 237.57 310.34 248.85 310.34 262.76Z" /><path class="shp0" d="M308.61 250.99C308.61 254 306.83 256.44 304.63 256.44C302.43 256.44 300.65 254 300.65 250.99C300.65 247.96 302.43 245.51 304.63 245.51C306.83 245.51 308.61 247.96 308.61 250.99Z" /><path class="shp11" d="M206.2 201.03C205.02 202.74 195.38 197.59 184.12 194.51C178.51 192.96 172.55 192.06 167.5 192.24C162.43 192.37 158.32 193.47 155.76 194.33C145.5 197.49 137.67 203.64 134.3 201.58C132.6 200.54 132.69 196.9 135.39 192.5C138.02 188.14 143.6 183.05 151.29 180.58C155.05 179.3 161.3 178.23 168.09 178.93C174.89 179.56 181.98 181.92 187.89 185.01C199.79 191.23 207.32 199.53 206.2 201.03" /><path class="shp11" d="M263.82 201.03C262.71 199.53 270.23 191.23 282.13 185.01C288.04 181.93 295.13 179.56 301.93 178.93C308.72 178.23 314.97 179.3 318.73 180.58C326.42 183.04 332 188.14 334.63 192.5C337.33 196.9 337.41 200.54 335.72 201.58C332.35 203.64 324.52 197.49 314.26 194.32C311.7 193.47 307.59 192.37 302.52 192.24C297.47 192.06 291.52 192.96 285.91 194.51C274.64 197.59 265 202.74 263.82 201.03" /><path class="shp6" d="M196.68 248.09C196.68 248.09 188.13 220.74 160.17 225.76C137.57 229.82 137.34 258.69 137.34 258.69" /><path class="shp6" d="M367.63 179.32C367.63 179.32 380.88 255.95 374.13 310.59C368.46 356.52 353.66 399.51 326.48 424.53C302.9 446.23 265.44 465.7 234.19 465.7C204.16 465.7 166.33 446.34 142.85 424.53C117.44 400.93 99.92 356.52 94.25 310.59C87.5 255.95 100.75 179.32 100.75 179.32C100.75 179.32 138.64 106.94 213.6 89.09C213.6 89.09 162.46 119.22 143.28 157.74C143.28 157.74 232.78 92.43 307.16 89.09C307.16 89.09 348.33 109.74 367.63 179.32Z" /><path class="shp6" d="M271.55 248.09C271.55 248.09 280.11 220.74 308.08 225.76C330.67 229.82 330.9 258.69 330.9 258.69" /><path class="shp6" d="M376.49 256.53C376.49 256.53 382.46 241.75 395.69 245.26C412.15 249.63 423.63 274.21 407.95 311.34C394.51 343.16 379.81 350.5 369.93 347.34" /><path class="shp6" d="M399.2 265.09C399.2 265.09 382.46 262.4 375.64 294.05" /><path class="shp6" d="M91.88 256.53C91.88 256.53 85.92 241.75 72.69 245.26C56.23 249.63 44.76 274.21 60.44 311.34C73.87 343.16 88.57 350.5 98.45 347.34" /><path class="shp6" d="M69.18 265.09C69.18 265.09 85.92 262.4 92.74 294.05" /><path class="shp6" d="M396.29 244.96C396.29 244.96 411.02 211.86 410.94 161.08C410.9 132.03 398.47 90.55 379.14 73.46C353.26 50.58 328.42 55.05 328.42 55.05C339.03 33.84 317.24 0.35 265.46 3.7C203.68 7.69 130.34 47.18 96.81 81.27C70.45 108.06 60.66 132.03 60.61 161.08C60.53 211.86 74.73 244.15 74.73 244.15" /><path class="shp13" d="M218.07 287.62C218.07 294.14 212.75 299.47 206.22 299.47L127.04 299.47C120.53 299.47 114.74 294.16 114.2 287.67L109.77 243.21C109.23 236.72 114.12 231.4 120.63 231.4L209.78 231.4C216.3 231.4 221.63 236.74 221.63 243.25L218.07 287.62Z" /><path class="shp13" d="M350.16 287.66C349.65 294.16 343.9 299.47 337.39 299.47L256.88 299.47C250.36 299.47 245.03 294.14 245.03 287.62L242.4 243.25C242.4 236.74 247.73 231.4 254.24 231.4L343.39 231.4C349.9 231.4 354.82 236.72 354.31 243.21L350.16 287.66Z" /><path class="shp13" d="M223.32 259.89L242.05 259.89" /><path class="shp13" d="M353.07 252.88L376.47 252.88" /><path class="shp13" d="M90.95 252.88L111.8 252.88" /><path class="shp14" d="M248.28 333.77C248.28 336.81 241.87 339.27 233.96 339.27C226.05 339.27 219.64 336.81 219.64 333.77C219.64 330.74 226.05 328.28 233.96 328.28C241.87 328.28 248.28 330.74 248.28 333.77Z" /><path class="shp0" d="M320.21 668.55L386.5 668.55L386.5 618.37L320.21 618.37L320.21 668.55Z" /><path class="shp7" d="M320.21 668.55L386.5 668.55L386.5 618.37L320.21 618.37L320.21 668.55Z" /><path class="shp15" d="M328.89 635.1L377.21 635.1L377.21 627.04L328.89 627.04L328.89 635.1Z" /><path class="shp6" d="M173.47 366.21C173.47 366.21 194.45 401.91 232.69 401.91C270.96 401.91 291.91 366.21 291.91 366.21" /></g></svg>